<?xml version="1.0" encoding="utf-8"?>
<!-- Generator: Adobe Illustrator 17.1.0, SVG Export Plug-In . SVG Version: 6.00 Build 0)  -->
<!DOCTYPE svg PUBLIC "-//W3C//DTD SVG 1.1//EN" "http://www.w3.org/Graphics/SVG/1.1/DTD/svg11.dtd">
<svg version="1.1" id="Layer_1" xmlns="http://www.w3.org/2000/svg" xmlns:xlink="http://www.w3.org/1999/xlink" x="0px" y="0px"
	 viewBox="0 0 736 441" enable-background="new 0 0 736 441" xml:space="preserve">
<rect x="298.9" y="160.9" transform="matrix(0.7071 0.7071 -0.7071 0.7071 235.4193 -178.3524)" fill="#EFEFEF" width="68.1" height="68.1"/>
<rect x="206.9" y="277.9" transform="matrix(0.7071 0.7071 -0.7071 0.7071 291.2046 -79.0301)" fill="#EFEFEF" width="68.1" height="68.1"/>
<g>
	<rect x="30" y="198" fill="#EDEDED" width="114" height="50"/>
	<rect x="72.6" y="215.5" fill="none" width="71" height="27.7"/>
	<text transform="matrix(1 0 0 1 72.5992 224.6201)"><tspan x="0" y="0" font-family="'OpenSans'" font-size="12">Download/</tspan><tspan x="0" y="14.4" font-family="'OpenSans'" font-size="12">Install</tspan></text>
</g>
<g>
	<rect x="30" y="285" fill="#EFEFEF" width="114" height="53"/>
	<rect x="58.6" y="307" fill="none" width="106" height="22"/>
	<text transform="matrix(1 0 0 1 58.6328 316.1201)" font-family="'OpenSans'" font-size="12">Launched</text>
</g>
<g>
	<rect x="593" y="338" fill="#EFEFEF" width="114" height="53"/>
	<rect x="630.2" y="359" fill="none" width="74.3" height="31.5"/>
	<text transform="matrix(1 0 0 1 630.1613 368.1201)" font-family="'OpenSans'" font-size="12">Store locally</text>
</g>
<g>
	<rect x="416" y="56" fill="#EFEFEF" width="114" height="53"/>
	<rect x="464.2" y="75" fill="none" width="67.3" height="29.3"/>
	<text transform="matrix(1 0 0 1 464.1613 84.1201)"><tspan x="0" y="0" font-family="'OpenSans'" font-size="12">Sync with </tspan><tspan x="0" y="14.4" font-family="'OpenSans'" font-size="12">the server</tspan></text>
</g>
<g>
	<circle fill="#EFEFEF" cx="474" cy="362" r="71"/>
	<rect x="439" y="356" fill="none" width="106" height="22"/>
	<text transform="matrix(1 0 0 1 438.9898 365.1608)" font-family="'OpenSans'" font-size="12">“App Things”</text>
</g>
<rect x="305.6" y="171.4" fill="none" width="56.4" height="46.1"/>
<text transform="matrix(1 0 0 1 322.5904 180.5388)"><tspan x="0" y="0" font-family="'OpenSans'" font-size="12">Do I</tspan><tspan x="-2.2" y="14.4" font-family="'OpenSans'" font-size="12">have </tspan><tspan x="-14.1" y="28.8" font-family="'OpenSans'" font-size="12">updates?</tspan></text>
<rect x="213.2" y="233" fill="none" width="56.4" height="15"/>
<text transform="matrix(1 0 0 1 232.0978 242.0794)" font-family="'OpenSans'" font-size="12">yes</text>
<rect x="213.2" y="377.5" fill="none" width="56.4" height="13"/>
<text transform="matrix(1 0 0 1 234.0431 386.5794)" font-family="'OpenSans'" font-size="12">no</text>
<rect x="213.2" y="297" fill="none" width="56.4" height="46.1"/>
<text transform="matrix(1 0 0 1 228.7404 306.0794)"><tspan x="0" y="0" font-family="'OpenSans'" font-size="12">Am I</tspan><tspan x="-7.4" y="14.4" font-family="'OpenSans'" font-size="12">online?</tspan></text>
<g>
	<g>
		<line fill="none" stroke="#777777" stroke-miterlimit="10" x1="86.5" y1="256" x2="86.5" y2="273"/>
		<g>
			<path fill="#777777" d="M86.5,279c-1.1-2.8-2.9-6.4-4.8-8.5l4.8,1.7l4.8-1.7C89.4,272.6,87.6,276.2,86.5,279z"/>
		</g>
	</g>
</g>
<g>
	<g>
		<path fill="none" stroke="#777777" stroke-miterlimit="10" d="M179,311.5c0,0-4.9,0-11,0s-11,0-11,0s4.9,0,11,0c1.8,0,5,0,5,0"/>
		<g>
			<path fill="#777777" d="M179,311.5c-2.8,1.1-6.4,2.9-8.5,4.8l1.7-4.8l-1.7-4.8C172.6,308.6,176.2,310.4,179,311.5z"/>
		</g>
	</g>
</g>
<ellipse fill="none" stroke="#777777" stroke-miterlimit="10" cx="240.5" cy="255.8" rx="0" ry="5.2"/>
<rect x="306.2" y="115" fill="none" width="56.4" height="15"/>
<text transform="matrix(1 0 0 1 325.0978 124.0794)" font-family="'OpenSans'" font-size="12">yes</text>
<ellipse fill="none" stroke="#777777" stroke-miterlimit="10" cx="333.5" cy="137.8" rx="0" ry="5.2"/>
<ellipse fill="none" stroke="#777777" stroke-miterlimit="10" cx="240.5" cy="366.8" rx="0" ry="5.2"/>
<rect x="306.2" y="267.5" fill="none" width="56.4" height="13"/>
<text transform="matrix(1 0 0 1 327.0431 276.5794)" font-family="'OpenSans'" font-size="12">no</text>
<ellipse fill="none" stroke="#777777" stroke-miterlimit="10" cx="333.5" cy="256.8" rx="0" ry="5.2"/>
<g>
	<g>
		<polyline fill="none" stroke="#777777" stroke-miterlimit="10" points="269,194.5 239.5,194.5 239.5,227 		"/>
		<g>
			<path fill="#777777" d="M275,194.5c-2.8-1.1-6.4-2.9-8.5-4.8l1.7,4.8l-1.7,4.8C268.6,197.4,272.2,195.6,275,194.5z"/>
		</g>
	</g>
</g>
<g>
	<g>
		<polyline fill="none" stroke="#777777" stroke-miterlimit="10" points="397,82.5 333.5,82.5 333.5,115 		"/>
		<g>
			<path fill="#777777" d="M403,82.5c-2.8-1.1-6.4-2.9-8.5-4.8l1.7,4.8l-1.7,4.8C396.6,85.4,400.2,83.6,403,82.5z"/>
		</g>
	</g>
</g>
<g>
	<g>
		<line fill="none" stroke="#777777" stroke-miterlimit="10" x1="253" y1="383.5" x2="384" y2="383.5"/>
		<g>
			<path fill="#777777" d="M390,383.5c-2.8,1.1-6.4,2.9-8.5,4.8l1.7-4.8l-1.7-4.8C383.6,380.6,387.2,382.4,390,383.5z"/>
		</g>
	</g>
</g>
<line fill="none" stroke="#777777" stroke-miterlimit="10" x1="333.5" y1="285" x2="333.5" y2="384"/>
<g>
	<g>
		<line fill="none" stroke="#777777" stroke-miterlimit="10" x1="472.5" y1="115" x2="472.5" y2="275"/>
		<g>
			<path fill="#777777" d="M472.5,281c-1.1-2.8-2.9-6.4-4.8-8.5l4.8,1.7l4.8-1.7C475.4,274.6,473.6,278.2,472.5,281z"/>
		</g>
	</g>
</g>
<g>
	<g>
		<line fill="none" stroke="#777777" stroke-miterlimit="10" x1="561" y1="362.5" x2="573" y2="362.5"/>
		<g>
			<path fill="#777777" d="M555,362.5c2.8,1.1,6.4,2.9,8.5,4.8l-1.7-4.8l1.7-4.8C561.4,359.6,557.8,361.4,555,362.5z"/>
		</g>
		<g>
			<path fill="#777777" d="M579,362.5c-2.8,1.1-6.4,2.9-8.5,4.8l1.7-4.8l-1.7-4.8C572.6,359.6,576.2,361.4,579,362.5z"/>
		</g>
	</g>
</g>
<g>
	<rect x="196.5" y="282.5" fill="#FFFFFF" stroke="#777777" stroke-miterlimit="10" width="26" height="27"/>
	<path fill="#EFEFEF" stroke="#DEE1E2" stroke-miterlimit="10" d="M220.9,250.6c-1.5,0-2.8,0.5-3.9,1.3c-1.2-1.9-3.2-3.1-5.6-3.1
		c-0.7,0-1.3,0.1-2,0.3c-1.1-0.7-2.3-1.1-3.7-1.1c-2.7,0-5,1.6-6,3.9c-0.2,0-0.4,0-0.6,0c-3.6,0-6.6,2.9-6.6,6.6
		c0,3.6,2.9,6.6,6.6,6.6c0.9,0,1.8-0.2,2.7-0.6c1.2,1.4,3,2.2,4.9,2.2c2.1,0,4-1,5.2-2.6c1.2,1,2.7,1.5,4.3,1.5c1.8,0,3.5-1,4.7-2
		c0,0,0,0,0,0c3.6,0,6.6-2.8,6.6-6.5C227.5,253.4,224.5,250.6,220.9,250.6z"/>
	<g>
		<path d="M209.1,277v-0.3c0-0.5,0.1-0.9,0.2-1.2c0.2-0.3,0.4-0.7,0.9-1c0.6-0.5,0.9-0.9,1.1-1.1c0.2-0.2,0.2-0.5,0.2-0.9
			c0-0.4-0.1-0.8-0.4-1c-0.3-0.2-0.7-0.4-1.2-0.4c-0.3,0-0.7,0-1,0.1c-0.3,0.1-0.7,0.2-1.1,0.4l-0.4-0.9c0.8-0.4,1.6-0.6,2.5-0.6
			c0.8,0,1.4,0.2,1.9,0.6c0.5,0.4,0.7,1,0.7,1.7c0,0.3,0,0.6-0.1,0.8c-0.1,0.2-0.2,0.5-0.4,0.7s-0.5,0.6-1,1
			c-0.4,0.4-0.7,0.7-0.9,0.9s-0.2,0.6-0.2,1v0.2H209.1z M208.7,278.9c0-0.6,0.3-0.9,0.8-0.9c0.2,0,0.4,0.1,0.6,0.2s0.2,0.4,0.2,0.6
			c0,0.3-0.1,0.5-0.2,0.6c-0.1,0.2-0.3,0.2-0.6,0.2c-0.2,0-0.4-0.1-0.5-0.2C208.8,279.4,208.7,279.2,208.7,278.9z"/>
	</g>
	<circle fill="#777777" cx="208.1" cy="295.6" r="6.1"/>
	<circle fill="#A3A3A3" cx="212.5" cy="298" r="4.4"/>
	<circle fill="#D1D1D1" cx="205.2" cy="301.1" r="1.6"/>
</g>
<g>
	<g>
		<g>
			<polyline fill="none" stroke="#777777" stroke-miterlimit="10" points="61.5,229 61.5,235.5 55,235.5 			"/>
			<polyline fill="none" stroke="#777777" stroke-miterlimit="10" points="42,235.5 35.5,235.5 35.5,229 			"/>
			<polyline fill="none" stroke="#777777" stroke-miterlimit="10" points="35.5,215 35.5,209.5 42,209.5 			"/>
			<polyline fill="none" stroke="#777777" stroke-miterlimit="10" points="55,209.5 61.5,209.5 61.5,215 			"/>
		</g>
	</g>
	<path fill="#EFEFEF" stroke="#DEE1E2" stroke-miterlimit="10" d="M59.3,177.6c-1.4,0-2.8,0.5-3.8,1.3c-1.1-1.8-3.2-3-5.5-3
		c-0.7,0-1.3,0.1-1.9,0.3c-1-0.7-2.3-1.1-3.6-1.1c-2.6,0-4.9,1.6-5.9,3.8c-0.2,0-0.4,0-0.6,0c-3.6,0-6.4,2.9-6.4,6.4
		c0,3.6,2.9,6.4,6.4,6.4c0.9,0,1.8-0.2,2.6-0.5c1.2,1.3,2.9,2.2,4.8,2.2c2.1,0,3.9-1,5.1-2.5c1.1,1,2.6,1.6,4.2,1.6
		c1.8,0,3.4-0.8,4.6-1.8c0,0,0,0,0,0c3.6,0,6.4-2.9,6.4-6.5S62.9,177.6,59.3,177.6z"/>
	<g>
		<circle fill="none" stroke="#777777" stroke-miterlimit="10" stroke-dasharray="9.4109,9.4109" cx="47.3" cy="221.6" r="6"/>
	</g>
	<g>
		<circle fill="none" stroke="#A3A3A3" stroke-miterlimit="10" stroke-dasharray="13.3299,13.3299" cx="51.7" cy="223.9" r="4.2"/>
	</g>
	<g>
		<circle fill="none" stroke="#D1D1D1" stroke-miterlimit="10" stroke-dasharray="12" cx="44.5" cy="227" r="1.6"/>
	</g>
	<polygon points="49,203 49,196 47,196 47,203 45.4,203 48.4,206.3 51.4,203 	"/>
</g>
<g>
	<rect x="426.5" y="71.5" fill="#FFFFFF" stroke="#777777" stroke-miterlimit="10" width="24" height="24"/>
	<path fill="#EFEFEF" stroke="#DEE1E2" stroke-miterlimit="10" d="M448.8,41.7c-1.3,0-2.6,0.4-3.6,1.2c-1.1-1.7-2.9-2.8-5.1-2.8
		c-0.6,0-1.2,0.1-1.8,0.3c-1-0.6-2.1-1-3.4-1c-2.4,0-4.5,1.5-5.5,3.6c-0.2,0-0.4,0-0.6,0c-3.3,0-6,2.7-6,6c0,3.3,2.7,6,6,6
		c0.9,0,1.7-0.2,2.4-0.5c1.1,1.2,2.7,2,4.5,2c1.9,0,3.7-0.9,4.8-2.3c1.1,0.9,2.4,1.4,3.9,1.4c1.7,0,3.2-0.9,4.3-1.9c0,0,0,0,0,0
		c3.3,0,6-2.6,6-5.9S452.1,41.7,448.8,41.7z"/>
	<circle fill="#777777" cx="437.1" cy="82.8" r="5.6"/>
	<circle fill="#A3A3A3" cx="441.1" cy="85" r="4"/>
	<circle fill="#D1D1D1" cx="434.4" cy="87.9" r="1.5"/>
	<polygon points="439,62 440.9,62 438.5,59.4 436.1,62 438,62 438,66 436.1,66 438.5,68.6 440.9,66 439,66 	"/>
</g>
<g>
	<rect x="600.5" y="351.5" fill="#FFFFFF" stroke="#777777" stroke-miterlimit="10" width="22" height="22"/>
	<circle fill="#777777" cx="609.8" cy="361.7" r="5.2"/>
	<circle fill="#A3A3A3" cx="613.6" cy="363.7" r="3.7"/>
	<circle fill="#D1D1D1" cx="607.4" cy="366.4" r="1.4"/>
	<polygon points="612,342 613.4,342 611.2,339.6 609,342 611,342 611,346 609,346 611.2,348.4 613.4,346 612,346 	"/>
	<g>
		<path fill="#B2B2B2" d="M615,335.2c0,0.5-0.4,0.8-0.8,0.8h-6.3c-0.5,0-0.8-0.4-0.8-0.8v-12.3c0-0.5,0.4-0.8,0.8-0.8h6.3
			c0.5,0,0.8,0.4,0.8,0.8V335.2z"/>
		<path fill="#565656" d="M615,333.4c0,0.4-0.8,1.6-1.2,1.6h-5.3c-0.4,0-0.5-1.2-0.5-1.6v-9.7c0-0.4,0.2,0.2,0.5,0.2h5.3
			c0.4,0,1.2-0.6,1.2-0.2V333.4z"/>
	</g>
</g>
</svg>
